<?xml version="1.0" encoding="utf-8"?>
<!-- Generator: Adobe Illustrator 21.1.0, SVG Export Plug-In . SVG Version: 6.00 Build 0)  -->
<svg version="1.1" id="Layer_1" xmlns="http://www.w3.org/2000/svg" xmlns:xlink="http://www.w3.org/1999/xlink" x="0px" y="0px"
	 viewBox="0 0 600 600" style="enable-background:new 0 0 600 600;" xml:space="preserve">
<style type="text/css">
	.st0{fill:#C1009D;}
</style>
<g>
	<path class="st0" d="M200.1,113.6c3.3-16.8,0-31.1-9.9-42.7c-9.9-11.6-22.4-17.4-37.4-17.4v0.1h-45.7L78.3,197.8h53
		c16,0,29.7-5.1,41-15.1c11.3-10,18.8-24.4,22.5-43.1L200.1,113.6z M166.9,113.4l-5.3,26.2c-2,10.3-5.3,18.2-9.9,23.9
		c-4.5,5.7-10.4,8.5-17.5,8.5h-17.5l18.5-92.7v-0.1h10.2c8.3,0,14.4,3.1,18.5,9.3C167.9,94.7,168.9,103,166.9,113.4z"/>
	<polygon class="st0" points="391.7,53.5 349.6,159 348.1,163.2 347.5,163.1 347.4,158.6 339.4,53.5 304.9,53.5 339.4,53.5 
		221.2,53.6 192.4,197.8 286.5,197.8 291.7,172 230.8,172 237.9,136 289.5,136 294.6,110.4 243,110.4 249.2,79.4 308.4,79.4 
		324.5,197.7 360.3,197.7 426.4,53.5 	"/>
	<path class="st0" d="M509.9,63.4c-8.5-7.9-20.2-11.9-35.2-11.9c-14.4,0-26.8,3.3-37.1,10c-10.4,6.6-16.8,16-19.2,28.2
		c-2.4,11.7,0.2,21.5,7.8,29.2c7.5,7.7,19.2,14.4,35,20c8.3,3.8,13.9,7.1,16.7,9.8s3.6,7.1,2.5,13.1c-0.7,3.5-2.9,6.4-6.7,9
		c-3.6,2.3-7.4,3.5-11.4,3.5c-6.4,0-11.7-1.4-15.9-4.1c-4.2-2.7-5.5-7.7-4-15h-32.2l-0.2,0.6c-3.3,15,0.1,26.1,10.2,33.3
		c10.1,7.2,22.5,10.8,37,10.8c14.7,0,27.1-3.2,37.2-9.6c10.1-6.4,16.4-15.9,19-28.6c2.6-12.6,0.5-22.7-6.1-30.5
		c-6.6-7.8-17-14.2-31.3-19.3c-11-4.4-18-7.9-21.2-10.4s-4.2-6.5-3.1-12c0.6-3.4,2.7-6.3,6.3-8.7c3.6-2.4,7.4-3.6,11.5-3.6
		c5.8,0,10.3,1.8,13.3,5.2c3.1,3.5,4,8.1,2.9,13.9h32.2l0.3-0.6C521.1,82.1,518.4,71.3,509.9,63.4z"/>
</g>
<g>
	<path class="st0" d="M200.1,280.4c3.3-16.8,0-31.1-9.9-42.7c-9.9-11.6-22.4-17.4-37.4-17.4v0.1h-45.7L78.3,364.6h53
		c16,0,29.7-5.1,41-15.1c11.3-10,18.8-24.4,22.5-43.1L200.1,280.4z M166.9,280.2l-5.3,26.2c-2,10.3-5.3,18.2-9.9,23.9
		c-4.5,5.7-10.4,8.5-17.5,8.5h-17.5l18.5-92.7V246h10.2c8.3,0,14.4,3.1,18.5,9.3C167.9,261.5,168.9,269.8,166.9,280.2z"/>
	<polygon class="st0" points="391.7,220.3 349.6,325.8 348.1,330 347.5,329.9 347.4,325.4 339.4,220.3 304.9,220.3 339.4,220.3 
		221.2,220.4 192.4,364.6 286.5,364.6 291.7,338.8 230.8,338.8 237.9,302.8 289.5,302.8 294.6,277.2 243,277.2 249.2,246.2 
		308.4,246.2 324.5,364.5 360.3,364.5 426.4,220.3 	"/>
	<path class="st0" d="M509.9,230.2c-8.5-7.9-20.2-11.9-35.2-11.9c-14.4,0-26.8,3.3-37.1,10c-10.4,6.6-16.8,16-19.2,28.2
		c-2.4,11.7,0.2,21.5,7.8,29.2c7.5,7.7,19.2,14.4,35,20c8.3,3.8,13.9,7.1,16.7,9.8s3.6,7.1,2.5,13.1c-0.7,3.5-2.9,6.4-6.7,9
		c-3.6,2.3-7.4,3.5-11.4,3.5c-6.4,0-11.7-1.4-15.9-4.1c-4.2-2.7-5.5-7.7-4-15h-32.2l-0.2,0.6c-3.3,15,0.1,26.1,10.2,33.3
		c10.1,7.2,22.5,10.8,37,10.8c14.7,0,27.1-3.2,37.2-9.6c10.1-6.4,16.4-15.9,19-28.6c2.6-12.6,0.5-22.7-6.1-30.5
		c-6.6-7.8-17-14.2-31.3-19.3c-11-4.4-18-7.9-21.2-10.4s-4.2-6.5-3.1-12c0.6-3.4,2.7-6.3,6.3-8.7c3.6-2.4,7.4-3.6,11.5-3.6
		c5.8,0,10.3,1.8,13.3,5.2c3.1,3.5,4,8.1,2.9,13.9h32.2l0.3-0.6C521.1,248.9,518.4,238.1,509.9,230.2z"/>
</g>
<g>
	<path class="st0" d="M200.1,447.3c3.3-16.8,0-31.1-9.9-42.7c-9.9-11.6-22.4-17.4-37.4-17.4v0.1h-45.7L78.3,531.5h53
		c16,0,29.7-5.1,41-15.1c11.3-10,18.8-24.4,22.5-43.1L200.1,447.3z M166.9,447.1l-5.3,26.2c-2,10.3-5.3,18.2-9.9,23.9
		c-4.5,5.7-10.4,8.5-17.5,8.5h-17.5l18.5-92.7v-0.1h10.2c8.3,0,14.4,3.1,18.5,9.3C167.9,428.4,168.9,436.7,166.9,447.1z"/>
	<polygon class="st0" points="391.7,387.2 349.6,492.7 348.1,496.9 347.5,496.8 347.4,492.3 339.4,387.2 304.9,387.2 339.4,387.2 
		221.2,387.3 192.4,531.5 286.5,531.5 291.7,505.7 230.8,505.7 237.9,469.7 289.5,469.7 294.6,444.1 243,444.1 249.2,413.1 
		308.4,413.1 324.5,531.4 360.3,531.4 426.4,387.2 	"/>
	<path class="st0" d="M509.9,397.1c-8.5-7.9-20.2-11.9-35.2-11.9c-14.4,0-26.8,3.3-37.1,10c-10.4,6.6-16.8,16-19.2,28.2
		c-2.4,11.7,0.2,21.5,7.8,29.2c7.5,7.7,19.2,14.4,35,20c8.3,3.8,13.9,7.1,16.7,9.8s3.6,7.1,2.5,13.1c-0.7,3.5-2.9,6.4-6.7,9
		c-3.6,2.3-7.4,3.5-11.4,3.5c-6.4,0-11.7-1.4-15.9-4.1c-4.2-2.7-5.5-7.7-4-15h-32.2l-0.2,0.6c-3.3,15,0.1,26.1,10.2,33.3
		c10.1,7.2,22.5,10.8,37,10.8c14.7,0,27.1-3.2,37.2-9.6c10.1-6.4,16.4-15.9,19-28.6c2.6-12.6,0.5-22.7-6.1-30.5
		c-6.6-7.8-17-14.2-31.3-19.3c-11-4.4-18-7.9-21.2-10.4s-4.2-6.5-3.1-12c0.6-3.4,2.7-6.3,6.3-8.7c3.6-2.4,7.4-3.6,11.5-3.6
		c5.8,0,10.3,1.8,13.3,5.2c3.1,3.5,4,8.1,2.9,13.9h32.2l0.3-0.6C521.1,415.8,518.4,405,509.9,397.1z"/>
</g>
</svg>
