<?xml version="1.0" encoding="utf-8"?>
<!-- Generator: Adobe Illustrator 21.1.0, SVG Export Plug-In . SVG Version: 6.00 Build 0)  -->
<svg version="1.1" id="Layer_1" xmlns="http://www.w3.org/2000/svg" xmlns:xlink="http://www.w3.org/1999/xlink" x="0px" y="0px"
	 viewBox="0 0 600 600" style="enable-background:new 0 0 600 600;" xml:space="preserve">
<style type="text/css">
	.st0{fill:#C1009D;}
</style>
<path class="st0" d="M200.1,113.6c3.3-16.8,0-31.1-9.9-42.7s-22.4-17.4-37.4-17.4v0.1h-45.7L78.3,197.8h53c16,0,29.7-5.1,41-15.1
	s18.8-24.4,22.5-43.1L200.1,113.6z M166.9,113.4l-5.3,26.2c-2,10.3-5.3,18.2-9.9,23.9c-4.5,5.7-10.4,8.5-17.5,8.5h-17.5l18.5-92.7
	v-0.1h10.2c8.3,0,14.4,3.1,18.5,9.3C167.9,94.7,168.9,103,166.9,113.4z"/>
<path class="st0" d="M391.7,53.5L349.6,159l-1.5,4.2l-0.6-0.1l-0.1-4.5l-8-105.1h-34.5h34.5l-118.2,0.1l-28.8,144.2h94.1l5.2-25.8
	h-60.9l7.1-36h51.6l5.1-25.6H243l6.2-31h59.2l16.1,118.3h35.8l66.1-144.2H391.7z"/>
<path class="st0" d="M509.9,63.4c-8.5-7.9-20.2-11.9-35.2-11.9c-14.4,0-26.8,3.3-37.1,10c-10.4,6.6-16.8,16-19.2,28.2
	c-2.4,11.7,0.2,21.5,7.8,29.2c7.5,7.7,19.2,14.4,35,20c8.3,3.8,13.9,7.1,16.7,9.8s3.6,7.1,2.5,13.1c-0.7,3.5-2.9,6.4-6.7,9
	c-3.6,2.3-7.4,3.5-11.4,3.5c-6.4,0-11.7-1.4-15.9-4.1c-4.2-2.7-5.5-7.7-4-15h-32.2l-0.2,0.6c-3.3,15,0.1,26.1,10.2,33.3
	s22.5,10.8,37,10.8c14.7,0,27.1-3.2,37.2-9.6c10.1-6.4,16.4-15.9,19-28.6c2.6-12.6,0.5-22.7-6.1-30.5s-17-14.2-31.3-19.3
	c-11-4.4-18-7.9-21.2-10.4s-4.2-6.5-3.1-12c0.6-3.4,2.7-6.3,6.3-8.7c3.6-2.4,7.4-3.6,11.5-3.6c5.8,0,10.3,1.8,13.3,5.2
	c3.1,3.5,4,8.1,2.9,13.9h32.2l0.3-0.6C521.1,82.1,518.4,71.3,509.9,63.4z"/>
<path class="st0" d="M200.1,280.4c3.3-16.8,0-31.1-9.9-42.7c-9.9-11.6-22.4-17.4-37.4-17.4v0.1h-45.7L78.3,364.6h53
	c16,0,29.7-5.1,41-15.1s18.8-24.4,22.5-43.1L200.1,280.4z M166.9,280.2l-5.3,26.2c-2,10.3-5.3,18.2-9.9,23.9
	c-4.5,5.7-10.4,8.5-17.5,8.5h-17.5l18.5-92.7V246h10.2c8.3,0,14.4,3.1,18.5,9.3C167.9,261.5,168.9,269.8,166.9,280.2z"/>
<path class="st0" d="M391.7,220.3l-42.1,105.5l-1.5,4.2l-0.6-0.1l-0.1-4.5l-8-105.1h-34.5h34.5l-118.2,0.1l-28.8,144.2h94.1
	l5.2-25.8h-60.9l7.1-36h51.6l5.1-25.6H243l6.2-31h59.2l16.1,118.3h35.8l66.1-144.2H391.7z"/>
<path class="st0" d="M509.9,230.2c-8.5-7.9-20.2-11.9-35.2-11.9c-14.4,0-26.8,3.3-37.1,10c-10.4,6.6-16.8,16-19.2,28.2
	c-2.4,11.7,0.2,21.5,7.8,29.2c7.5,7.7,19.2,14.4,35,20c8.3,3.8,13.9,7.1,16.7,9.8s3.6,7.1,2.5,13.1c-0.7,3.5-2.9,6.4-6.7,9
	c-3.6,2.3-7.4,3.5-11.4,3.5c-6.4,0-11.7-1.4-15.9-4.1c-4.2-2.7-5.5-7.7-4-15h-32.2l-0.2,0.6c-3.3,15,0.1,26.1,10.2,33.3
	c10.1,7.2,22.5,10.8,37,10.8c14.7,0,27.1-3.2,37.2-9.6s16.4-15.9,19-28.6c2.6-12.6,0.5-22.7-6.1-30.5s-17-14.2-31.3-19.3
	c-11-4.4-18-7.9-21.2-10.4s-4.2-6.5-3.1-12c0.6-3.4,2.7-6.3,6.3-8.7c3.6-2.4,7.4-3.6,11.5-3.6c5.8,0,10.3,1.8,13.3,5.2
	c3.1,3.5,4,8.1,2.9,13.9h32.2l0.3-0.6C521.1,248.9,518.4,238.1,509.9,230.2z"/>
<path class="st0" d="M200.1,447.3c3.3-16.8,0-31.1-9.9-42.7s-22.4-17.4-37.4-17.4v0.1h-45.7L78.3,531.5h53c16,0,29.7-5.1,41-15.1
	s18.8-24.4,22.5-43.1L200.1,447.3z M166.9,447.1l-5.3,26.2c-2,10.3-5.3,18.2-9.9,23.9c-4.5,5.7-10.4,8.5-17.5,8.5h-17.5l18.5-92.7
	v-0.1h10.2c8.3,0,14.4,3.1,18.5,9.3C167.9,428.4,168.9,436.7,166.9,447.1z"/>
<path class="st0" d="M391.7,387.2l-42.1,105.5l-1.5,4.2l-0.6-0.1l-0.1-4.5l-8-105.1h-34.5h34.5l-118.2,0.1l-28.8,144.2h94.1
	l5.2-25.8h-60.9l7.1-36h51.6l5.1-25.6H243l6.2-31h59.2l16.1,118.3h35.8l66.1-144.2H391.7z"/>
<path class="st0" d="M509.9,397.1c-8.5-7.9-20.2-11.9-35.2-11.9c-14.4,0-26.8,3.3-37.1,10c-10.4,6.6-16.8,16-19.2,28.2
	c-2.4,11.7,0.2,21.5,7.8,29.2c7.5,7.7,19.2,14.4,35,20c8.3,3.8,13.9,7.1,16.7,9.8s3.6,7.1,2.5,13.1c-0.7,3.5-2.9,6.4-6.7,9
	c-3.6,2.3-7.4,3.5-11.4,3.5c-6.4,0-11.7-1.4-15.9-4.1c-4.2-2.7-5.5-7.7-4-15h-32.2l-0.2,0.6c-3.3,15,0.1,26.1,10.2,33.3
	s22.5,10.8,37,10.8c14.7,0,27.1-3.2,37.2-9.6c10.1-6.4,16.4-15.9,19-28.6c2.6-12.6,0.5-22.7-6.1-30.5s-17-14.2-31.3-19.3
	c-11-4.4-18-7.9-21.2-10.4s-4.2-6.5-3.1-12c0.6-3.4,2.7-6.3,6.3-8.7c3.6-2.4,7.4-3.6,11.5-3.6c5.8,0,10.3,1.8,13.3,5.2
	c3.1,3.5,4,8.1,2.9,13.9h32.2l0.3-0.6C521.1,415.8,518.4,405,509.9,397.1z"/>
</svg>
